<?xml version="1.0" standalone="no"?><!DOCTYPE svg PUBLIC "-//W3C//DTD SVG 1.1//EN" "http://www.w3.org/Graphics/SVG/1.1/DTD/svg11.dtd"><svg t="1526369025207" class="icon" style="" viewBox="0 0 1024 1024" version="1.1" xmlns="http://www.w3.org/2000/svg" p-id="897" xmlns:xlink="http://www.w3.org/1999/xlink" width="200" height="200"><defs><style type="text/css"></style></defs><path d="M511.316943 499.380588m-494.264057 0a494.264057 494.264057 0 1 0 988.528114 0 494.264057 494.264057 0 1 0-988.528114 0Z" fill="#939393" p-id="898"></path><path d="M631.094934 503.458463c-19.463284 0-35.240619 15.778358-35.240619 35.241642s15.778358 35.240619 35.240619 35.240619c19.464307 0 35.242665-15.778358 35.242665-35.240619 0-19.463284-15.779382-35.241642-35.242665-35.241642z m0 58.736753c-12.975523 0-23.49511-10.518564-23.495111-23.494087s10.519588-23.49511 23.495111-23.495111c12.974499 0 23.493064 10.519588 23.493063 23.495111s-10.519588 23.494087-23.493063 23.494087z" fill="#494949" p-id="899"></path><path d="M622.862435 571.250452h20.533662v88.981591h-20.533662z" fill="#494949" p-id="900"></path><path d="M642.378931 615.273085h20.533662v13.690813h-20.533662z" fill="#494949" p-id="901"></path><path d="M658.348648 735.364207s13.706163-85.668125 85.668125-30.840402c0 0 17.132192-16.093537 37.693483-18.327414 0 0 23.986297-36.500309 51.400671 8.04728 0 0 34.265408-5.140067 39.406498 29.126364 0 0 41.441854 2.833535 22.274306 49.687656-15.419178 37.694507-47.973618 15.420201-47.973618 15.420201s-25.699312 59.96779-92.521206 17.133216c0 0-42.833551 34.266431-61.680805-13.707187 0 0-62.46261 17.09433-54.826699-31.552623 1.25355-7.990998 10.280134-23.273053 20.559245-24.987091z" fill="#FFFFFF" p-id="902"></path><path d="M513.654174 822.197878s118.319779-70.025866 132.807749 53.122895c0 0 38.634926 24.14798 31.390941 65.196884 0 0-9.657964 53.122895-81.646532 32.598442 0 0-27.013237 88.135316-116.358101 18.10945 0 0-67.610864 74.854848-125.563764-21.731954 0 0-89.343841 19.317974-96.587825-48.293912 0 0 2.413979-48.292889 48.293912-55.536874 0 0-16.902972-66.404386 53.122895-51.915394 0 0 41.954531-72.251557 109.113093-11.375071 0-0.001023 45.427632 0.50756 45.427632 19.825534z" fill="#FFFFFF" p-id="903"></path><path d="M378.663714 719.141734l11.827373-2.594081 30.205952 137.677662-11.828396 2.595105zM346.372264 721.988572h11.577686v134.785799H346.372264z" fill="#494949" p-id="904"></path><path d="M260.219091 581.90614c-45.184085 52.822043-105.46603 39.162952-86.928838 68.819388 34.131355 54.601572 155.427932 89.546456 224.565569 89.546456 106.687858 0 194.383152-73.207325 194.383152-179.895183 0-67.814502-78.867232-160.751171-177.48018-128.181381-49.249681 16.266475-68.818365 49.500391-154.539703 149.71072z" fill="#FFFFFF" p-id="905"></path><path d="M527.226285 422.856727c0 15.945157-29.730115 28.870538-66.403363 28.870538s-66.404386-12.925381-66.404386-28.870538 29.730115 15.904225 66.404386 15.904225 66.403363-31.849382 66.403363-15.904225z" fill="#686868" p-id="906"></path><path d="M417.357991 428.684456v-41.130769c0-20.00359 16.216333-36.219923 36.220946-36.219923h9.657964c20.00359 0 36.219923 16.216333 36.219923 36.219923v36.853349" fill="#D6D6D6" p-id="907"></path><path d="M497.226017 435.707406c-28.566616 2.957355-48.560996 3.832282-76.614935 1.207502-5.321192-0.49835-4.460592-22.588461-4.460592-22.588461h83.306334s3.087315 20.830421-2.230807 21.380959z" fill="#A1CECA" p-id="908"></path><path d="M410.367004 632.554669a95.984075 63.171762 23.155 1 0-176.504051-75.485697 95.984075 63.171762 23.155 1 0 176.504051 75.485697Z" fill="#FFEEC7" p-id="909"></path><path d="M519.983323 549.337373c-31.391964 76.06235-76.063373 20.525476-76.063373 20.525476s34.409694 35.013445 76.063373-20.525476z" fill="#494949" p-id="910"></path><path d="M456.98757 593.506339c-0.496304 2.761903-2.90005 3.475148-5.160533 2.346441-2.25946-1.128707-2.409886-3.461845-1.914606-6.224772l3.617388-10.31288c0.916882-1.25662 2.840698 0.073678 5.101181 1.203408l-0.630356-2.25639c2.25946 1.12973 3.520173 3.672646 2.604314 4.931313l-3.617388 10.31288zM471.9524 597.510536c-0.372483 2.258437-1.815345 3.090385-4.590551 2.622734-2.774183-0.465604-3.443425-1.886977-3.069919-4.145414l1.913583-11.589966c0.373507-2.25946 3.261277-0.890276 6.03546-0.424672l-0.083911-0.705058c2.775206 0.466628 2.076288 1.451048 1.703804 3.711532l-1.908466 10.530844zM492.773611 595.418898c0.463558 2.568499-1.152243 3.475148-3.803629 4.007267l1.192152-0.078795c-2.650363 0.533143-5.331425 0.493234-5.79703-2.075264l-2.378163-13.170975c-0.463558-2.568499 0.995677-1.865487 3.647063-2.399653 2.651386-0.534166 4.296863-2.023076 4.761444 0.545423l2.378163 13.171997zM511.834736 584.330352c0.931209 1.708921-0.532119 3.897773-2.417049 5.586229-1.885953 1.688455-5.52483-0.830925-6.457062-2.539846l-2.732228-5.700839c-0.931209-1.709945-0.158612-4.464685 1.727341-6.155187 1.885953-1.688455 4.168949-1.672082 5.100158 0.037862l4.77884 8.771781zM524.131807 567.779398c1.610684 1.457188 1.762133 3.402493 0.013303 5.565762-1.74883 2.161223-3.841491 3.461845-5.453199 2.003634l-8.263198-7.476276c-1.609661-1.458211-1.027399 0.031722 0.720408-2.13257l-1.7826 0.524956c1.74883-2.161223 4.89038-7.419993 6.503111-5.962805l8.262175 7.477299z" fill="#494949" p-id="911"></path><path d="M571.495534 491.385497h53.92926l-47.490617 24.146956-9.657964-24.146956M579.878458 525.243629l49.169863-1.420349s-3.623527 9.819646-39.443337 27.827789c-6.14393 3.089361-9.726525-26.40744-9.726526-26.40744z" fill="#E88787" p-id="912"></path></svg>