<?xml version="1.0" standalone="no"?><!DOCTYPE svg PUBLIC "-//W3C//DTD SVG 1.1//EN" "http://www.w3.org/Graphics/SVG/1.1/DTD/svg11.dtd"><svg t="1526540200930" class="icon" style="" viewBox="0 0 1330 1024" version="1.1" xmlns="http://www.w3.org/2000/svg" p-id="4393" xmlns:xlink="http://www.w3.org/1999/xlink" width="259.765625" height="200"><defs><style type="text/css"></style></defs><path d="M972.626336 75.85425H555.439625v-37.927125c0-20.963752-16.963373-37.927125-37.927125-37.927125s-37.927125 16.963373-37.927125 37.927125v37.927125H62.401256c-20.963752 0-37.927125 16.977632-37.927125 37.921941v644.746869c0 20.963752 16.963373 37.92194 37.927125 37.92194H236.328327l-162.817786 162.815194c-14.811516 14.812812-14.811516 38.813794 0 53.629199 7.408351 7.408351 17.109855 11.110581 26.81784 11.110581a37.796199 37.796199 0 0 0 26.811359-11.110581l216.446985-216.445689h347.854142l216.446985 216.445689c7.403165 7.408351 17.109855 11.110581 26.812655 11.110581s19.404304-3.702231 26.81784-11.110581c14.811516-14.811516 14.811516-38.811201 0-53.629199l-162.819082-162.815194H972.626336c20.963752 0 37.927125-16.958188 37.927125-37.92194V113.776191c-0.001296-20.944308-16.964669-37.92194-37.927125-37.921941zM866.762757 238.252036l-32.92341 122.813989a14.903553 14.903553 0 0 1-24.931725 6.687608l-21.016901-20.987086-209.427524 209.424932c-5.820384 5.820384-15.258739 5.820384-21.083012 0l-122.203432-122.198247-222.56811 222.570702c-2.911488 2.910192-6.726497 4.365936-10.541506 4.365936s-7.630018-1.455744-10.541506-4.365936l-26.812655-26.812655a14.904849 14.904849 0 0 1 0-21.083012l259.923567-259.927456c5.82168-5.82168 15.261332-5.82168 21.081716 0l122.203432 122.198247 172.065586-172.066881-21.015605-21.014309a14.907442 14.907442 0 0 1 6.682423-24.940798l122.850286-32.924707a14.898368 14.898368 0 0 1 14.399292 3.859084 14.904849 14.904849 0 0 1 3.859084 14.400589z" fill="" p-id="4394"></path></svg>