<?xml version="1.0" standalone="no"?><!DOCTYPE svg PUBLIC "-//W3C//DTD SVG 1.1//EN" "http://www.w3.org/Graphics/SVG/1.1/DTD/svg11.dtd"><svg t="1526905937457" class="icon" style="" viewBox="0 0 1024 1024" version="1.1" xmlns="http://www.w3.org/2000/svg" p-id="1995" xmlns:xlink="http://www.w3.org/1999/xlink" width="200" height="200"><defs><style type="text/css">@font-face { font-family: uc-nexus-iconfont; src: url("chrome-extension://pogijhnlcfmcppgimcaccdkmbedjkmhi/res/font_9qmmi8b8jsxxbt9.woff") format("woff"), url("chrome-extension://pogijhnlcfmcppgimcaccdkmbedjkmhi/res/font_9qmmi8b8jsxxbt9.ttf") format("truetype"); }
</style></defs><path d="M671.984091 475.083485c0-1.707442-1.171806-3.128679-2.751135-3.538201l0-1.04669c0-0.506856-0.410322-0.917378-0.916379-0.917378-0.506856 0-0.917378 0.410522-0.917378 0.917378l0 1.04669c-1.579329 0.409522-2.751135 1.830559-2.751135 3.538201l0 8.253204 7.335826 0L671.984091 475.083485zM673.358959 483.33669l-10.086961 0c-0.253428 0-0.458689 0.205261-0.458689 0.458689 0 0.253428 0.205261 0.458689 0.458689 0.458689l10.086961 0c0.253428 0 0.458689-0.205261 0.458689-0.458689C673.817648 483.541951 673.612587 483.33669 673.358959 483.33669zM946.906893 269.640975c-6.358089-29.86715-30.680798-45.654446-70.33951-45.654446L324.156118 223.986529c-3.376111-24.187401-6.185606-43.24508-8.132286-54.671133-7.71457-45.282898-33.328403-79.021823-72.126099-94.99999-23.309996-9.600691-44.819213-9.802754-53.526109-9.382039L128.241548 64.933367c-28.336188 0-51.307414 22.971425-51.307414 51.307414S99.90556 167.548394 128.241548 167.548394l66.078998 0 2.405369-0.226846c0.056362 0 4.595085 0.435105 8.096311 1.876927 2.664793 1.097056 7.624231 3.140071 10.044989 17.349037 12.121981 71.156356 61.417159 468.975235 65.437633 501.471203 0.566416 10.115742 3.49603 33.767506 17.973014 57.696282 13.578993 22.444982 47.063291 60.098453 118.752286 60.098453l447.989263 0c28.335988 0 51.307414-22.971425 51.307414-51.307414 0-28.335988-22.971425-51.307414-51.307414-51.307414L417.028751 703.198623c-10.591819 0-24.404854-1.60791-30.064216-9.268316-2.677185-3.624343-3.779238-8.301572-4.105616-10.66377l0.129312-1.009715-0.585003-4.739786c-0.446497-3.617148-2.965589-23.998529-6.797192-54.747081 91.012294-0.947158 320.399969-3.299163 397.405359-3.299163 10.512872 0 20.548668-0.684336 29.828176-2.229688 17.848898-2.971785 42.474402-10.701744 58.430984-30.64902 5.114332-6.391866 8.836209-13.518435 11.062899-21.182838 2.874251-9.889095 5.618191-20.076588 8.271792-29.929708 2.460732-9.141002 5.007605-18.592794 7.645816-27.765575 11.202405-38.935202 23.979142-81.771759 39.058318-130.955212 1.79878-5.863425 3.77524-11.783211 5.867422-18.049962C942.533658 330.68159 953.138868 298.915927 946.906893 269.640975zM359.326473 897.73193c0 33.940588 27.514345 61.455133 61.455133 61.455133s61.455133-27.514545 61.455133-61.455133c0-33.940788-27.514345-61.455133-61.455133-61.455133S359.326473 863.791142 359.326473 897.73193zM731.532517 897.73193c0 33.940588 27.514345 61.455133 61.455133 61.455133 33.940588 0 61.455133-27.514545 61.455133-61.455133 0-33.940788-27.514545-61.455133-61.455133-61.455133C759.046862 836.276796 731.532517 863.791142 731.532517 897.73193L731.532517 897.73193z" p-id="1996"></path></svg>