<?xml version="1.0" standalone="no"?><!DOCTYPE svg PUBLIC "-//W3C//DTD SVG 1.1//EN" "http://www.w3.org/Graphics/SVG/1.1/DTD/svg11.dtd"><svg t="1525326676453" class="icon" style="" viewBox="0 0 1116 1024" version="1.1" xmlns="http://www.w3.org/2000/svg" p-id="3517" xmlns:xlink="http://www.w3.org/1999/xlink" width="217.96875" height="200"><defs><style type="text/css"></style></defs><path d="M727.909011 64.503937a34.827647 34.827647 0 0 1-34.71566 35.051619 33.595801 33.595801 0 0 1-15.11811-3.471566 397.102362 397.102362 0 0 0-127.216098-20.829397 401.805774 401.805774 0 0 0-363.058618 232.034996l130.575678-36.283465a34.379703 34.379703 0 0 1 42.554681 24.300963 34.827647 34.827647 0 0 1-24.076991 42.778652L139.982502 392.846894a32.363955 32.363955 0 0 1-9.182852 1.231846 35.387577 35.387577 0 0 1-9.742782-1.455818h-0.783902a36.283465 36.283465 0 0 1-9.854768-5.263342l-2.687664-2.351706a31.35608 31.35608 0 0 1-5.823272-7.27909 19.373578 19.373578 0 0 1-1.567804-2.23972 2.015748 2.015748 0 0 0 0-0.783902L8.95888 182.537183a34.827647 34.827647 0 0 1 16.349956-46.362205 34.267717 34.267717 0 0 1 46.026247 16.461942l56.552931 119.713036A470.341207 470.341207 0 0 1 550.859143 5.5993a465.413823 465.413823 0 0 1 151.741032 25.308836l3.023622 1.007874A34.939633 34.939633 0 0 1 727.909011 64.503937z" p-id="3518" fill="#8a8a8a"></path><path d="M954.008749 369.553806a39.195101 39.195101 0 1 0 39.195101-39.083115 39.083115 39.083115 0 0 0-39.195101 39.083115zM834.071741 183.321085A39.195101 39.195101 0 1 0 873.490814 144.23797a39.195101 39.195101 0 0 0-39.307087 39.083115z" p-id="3519" fill="#8a8a8a"></path><path d="M395.1986 968.566929a34.827647 34.827647 0 0 1 32.587927-36.843394 33.595801 33.595801 0 0 1 15.230096 2.575678A393.966754 393.966754 0 0 0 571.128609 948.185477a401.91776 401.91776 0 0 0 349.956255-251.52056l-128.447944 43.450569a34.603675 34.603675 0 0 1-43.786526-22.397201 34.939633 34.939633 0 0 1 21.83727-44.122484l193.511811-64.951881a37.179353 37.179353 0 0 1 9.070866-1.791777 36.395451 36.395451 0 0 1 9.854768 1.007874h0.783902a31.804024 31.804024 0 0 1 10.078741 4.703413l2.79965 2.127734a31.132108 31.132108 0 0 1 6.271216 6.943132c0 0.783902 1.231846 1.343832 1.67979 2.127734a2.015748 2.015748 0 0 0 0.55993 0.783902l100.787401 186.568679a34.827647 34.827647 0 0 1-13.886264 47.146106 34.267717 34.267717 0 0 1-46.810149-13.886264L982.789151 727.909011a470.341207 470.341207 0 0 1-407.853018 289.819773 463.510061 463.510061 0 0 1-152.860892-17.021872l-3.023622-0.783902a35.051619 35.051619 0 0 1-23.853019-31.356081z" p-id="3520" fill="#8a8a8a"></path><path d="M153.308836 675.387577A39.195101 39.195101 0 1 0 116.24147 716.710411a39.195101 39.195101 0 0 0 37.067366-41.210848zM282.540682 855.685039a39.195101 39.195101 0 1 0-37.067366 41.210849 39.195101 39.195101 0 0 0 37.067366-41.210849z" p-id="3521" fill="#8a8a8a"></path></svg>