<?xml version="1.0" standalone="no"?><!DOCTYPE svg PUBLIC "-//W3C//DTD SVG 1.1//EN" "http://www.w3.org/Graphics/SVG/1.1/DTD/svg11.dtd"><svg t="1525857896712" class="icon" style="" viewBox="0 0 1024 1024" version="1.1" xmlns="http://www.w3.org/2000/svg" p-id="1688" xmlns:xlink="http://www.w3.org/1999/xlink" width="200" height="200"><defs><style type="text/css"></style></defs><path d="M510.5 319.3c-65.5 0-118.8 53.6-118.8 119.5S445 558.3 510.5 558.3s118.8-53.6 118.8-119.5S576 319.3 510.5 319.3z m0 193c-40.1 0-72.8-33-72.8-73.5s32.6-73.5 72.8-73.5c40.1 0 72.8 33 72.8 73.5s-32.7 73.5-72.8 73.5z" p-id="1689"></path><path d="M744.9 641.6c48.3-56.4 74.7-127.6 74.7-202.8 0-83.1-32.1-161.2-90.4-219.9-58.4-58.8-136-91.2-218.5-91.2S350.3 160.1 292 218.9c-58.3 58.8-90.4 136.9-90.4 219.9 0 76 26.9 147.7 76 204.4L147.9 773.4l90.2 32.6 32.6 90.3 157.5-157.5c26.5 7.3 54.1 11.1 82.3 11.1 29 0 57.4-4 84.5-11.7l158.2 158.2 32.6-90.3 90.2-32.6-131.1-131.9z m-455.4 171l-15.3-42.5-42.6-15.4 78.7-79c21.6 18.6 45.3 33.9 70.6 45.6l-91.4 91.3z m-42-373.8c0-146.2 118-265.1 263-265.1s263 118.9 263 265.1-118 265.1-263 265.1-263-118.9-263-265.1z m502.4 331.3l-15.3 42.5-92.2-92.2c25.1-12 48.7-27.4 70.1-46.1l80 80.4-42.6 15.4z" p-id="1690"></path></svg>